<svg width="60" height="89" viewBox="0 0 60 89" fill="none" xmlns="http://www.w3.org/2000/svg">
<g filter="url(#filter0_d_20_85)">
<path d="M32.9635 15.4258C32.8854 13.5058 30.4847 12.548 29.3328 11.8046C28.4053 11.2061 23.0224 14.1179 20.9096 15.4333C18.306 17.0541 18.9048 20.57 18.9048 20.57C18.2018 21.293 17.8508 21.6847 17.6292 22.8888C17.4729 23.7366 17.8538 24.6 18.0457 25.4072C18.2007 26.0596 18.1758 26.5542 18.1758 26.5542C16.4577 27.0528 15.2079 28.873 15.2079 28.873H14.687C14.3486 28.3992 14.0622 25.0331 14.6349 24.1106C18.8551 21.0841 14.713 17.9518 10.4172 16.2564C9.4118 15.8595 8.66551 16.1244 7.89176 16.2812C4.32509 17.0043 7.2411 25.058 7.2411 25.058V26.0056C7.2411 26.0056 3.75258 18.902 4.01399 17.0422C4.20494 15.6846 5.5664 14.4079 6.92722 14.1092C7.39853 14.0058 6.93196 12.8461 7.18863 11.6412C7.51935 10.0886 8.98822 8.11683 8.98822 8.11683C9.8465 9.10164 10.9943 13.3039 10.9943 13.3039L14.0115 13.3146C14.0115 13.3146 26.898 7.93458 28.5003 7.53282L31.6323 0C33.7566 1.37718 35.035 4.10883 35.1336 7.60375C35.1336 7.60375 38.1586 7.97623 39.8676 9.82342C43.3197 13.5544 43.9043 18.906 48.7442 22.5751C50.8218 24.1502 52.6988 25.4126 53.9497 28.0201C56.783 33.9265 56.7139 43.5987 52.6082 49.785C52.6082 49.785 42.3501 64.2949 42.9813 68.0735C43.6127 71.8521 47.8736 72.0788 53.7918 72.0788L49.3584 77.9694C40.8117 79.594 30.6156 83.4526 31.6184 74.1948C31.6184 74.1948 15.3475 82.8327 9.20843 78.8803C7.01697 77.4696 2.73786 64.9773 5.97314 55.7882C6.76358 53.5435 8.44203 50.5505 10.7076 48.0468C15.8368 42.379 19.7033 39.8094 22.5408 37.3057C24.7195 35.3831 26.5882 34.7496 27.3574 33.537C28.9628 31.0057 27.6693 29.0167 27.6693 29.0167C30.7519 27.8221 32.8272 25.9597 33.5787 24.6553C34.4357 23.1673 32.657 23.2794 32.657 23.2794C32.657 23.2794 34.3608 21.3306 34.7986 19.7228C34.8713 19.4549 34.2815 18.9755 34.3376 18.7103C34.5357 17.774 34.69 16.4776 34.4461 16.0882C33.663 14.8385 32.9633 15.4258 32.9633 15.4258M20.1958 67.6727C30.0442 66.6788 32.2233 62.6323 32.197 62.456C32.197 62.456 27.8233 62.3385 27.2358 62.2349C26.4169 62.0904 26.1591 61.7135 26.1591 61.7135C37.2637 61.9916 41.9219 55.5319 45.1906 50.1628C49.8411 42.5245 46.8354 33.8254 44.4222 28.1682C36.8037 33.7732 21.9781 43.5678 15.5999 52.3545C10.7429 59.0453 15.2144 74.5867 16.7402 76.0676C18.2659 77.5484 30.2612 67.6608 30.2612 67.6608C25.8232 68.8119 21.9923 69.3195 20.1958 67.6727ZM14.5837 20.4385C14.6782 21.7275 13.7802 23.6575 11.2186 23.8618C8.65717 24.0663 7.0907 21.7334 7.07435 21.0491C7.02727 19.0589 8.60944 18.2221 10.5222 18.2221C12.4349 18.2221 14.4892 19.1494 14.5837 20.4385ZM13.0077 21.4217C13.1375 20.0217 12.4555 19.4618 10.734 19.3996C9.01258 19.3373 8.46034 20.5506 8.97989 21.7325C9.49975 22.9146 12.8776 22.8214 13.0076 21.4215M20.86 19.0409C21.0953 17.8768 21.8023 15.9634 25.7607 15.8117C30.6614 15.624 31.3491 19.2049 30.6221 20.8808C29.5636 23.3214 26.0744 25.011 23.5259 23.2462C20.9774 21.4814 20.6248 20.205 20.86 19.0409ZM23.0948 20.2798C23.0948 20.2798 23.9964 22.1195 26.0744 21.932C28.1523 21.7441 28.7403 20.2423 28.8188 19.4162C28.8539 19.0447 28.5521 18.0563 27.7602 17.614C26.7911 17.0727 25.2202 17.1331 24.2709 17.4637C22.5459 18.0644 23.0948 20.2798 23.0948 20.2798Z" fill="#FFCC00"/>
</g>
<defs>
<filter id="filter0_d_20_85" x="0" y="0" width="59.9081" height="88.163" filterUnits="userSpaceOnUse" color-interpolation-filters="sRGB">
<feFlood flood-opacity="0" result="BackgroundImageFix"/>
<feColorMatrix in="SourceAlpha" type="matrix" values="0 0 0 0 0 0 0 0 0 0 0 0 0 0 0 0 0 0 127 0" result="hardAlpha"/>
<feOffset dy="4"/>
<feGaussianBlur stdDeviation="2"/>
<feComposite in2="hardAlpha" operator="out"/>
<feColorMatrix type="matrix" values="0 0 0 0 0 0 0 0 0 0 0 0 0 0 0 0 0 0 1 0"/>
<feBlend mode="normal" in2="BackgroundImageFix" result="effect1_dropShadow_20_85"/>
<feBlend mode="normal" in="SourceGraphic" in2="effect1_dropShadow_20_85" result="shape"/>
</filter>
</defs>
</svg>
