<svg width="18" height="18" viewBox="0 0 18 18" fill="none" xmlns="http://www.w3.org/2000/svg">
<path d="M2 17.3848C1.45 17.3848 0.979167 17.1956 0.5875 16.8173C0.195833 16.4391 0 15.9843 0 15.4531V1.93164C0 1.40044 0.195833 0.945699 0.5875 0.567419C0.979167 0.18914 1.45 0 2 0H16C16.55 0 17.0208 0.18914 17.4125 0.567419C17.8042 0.945699 18 1.40044 18 1.93164V15.4531C18 15.9843 17.8042 16.4391 17.4125 16.8173C17.0208 17.1956 16.55 17.3848 16 17.3848H2ZM2 15.4531H16V1.93164H2V15.4531Z" fill="#1D1B20"/>
</svg>
